<svg version="1.1" viewBox="0 0 10240 7680" x="0px" y="0px" width="1024px" height="768px" xmlns="http://www.w3.org/2000/svg">
  <defs>
    <symbol id="symbol_ICE HOCKEY" viewBox="0 0 532.1682475283359 259.89612088593145">
      <path d="M532.1479958825526,204.5832507945243C532.1479958825526,225.81147594117257 514.9509733382172,243.01974939983194 493.7384994716226,243.01974939983194L38.3881196737142,243.01974939983194C17.175645807119608,243.01974939983194 -0.020251645783320102,225.81147594117257 -0.020251645783320102,204.5832507945243L-0.020251645783320102,55.31287009140712C-0.021376737215725968,34.08464494475884 17.17564580711961,16.876371486099444 38.3881196737142,16.876371486099444L493.7396245630551,16.876371486099444C514.9520984296496,16.876371486099444 532.1491209739849,34.08464494475884 532.1491209739849,55.31174499997472L532.1491209739849,204.5832507945243z" id="ICE" fill="#e9eeee" stroke-width="1.1"/>
      <g id="FACE OFF CIRCLE">
        <path d="M489.6454168405273,70.9572664590213C489.64316665766245,50.071069107824634 473.7647512721077,32.89317311784022 453.42534835706067,30.834255796536084L453.42534835706067,26.321514061153092L452.84480117793873,26.321514061153092L452.84480117793873,30.79037723067223C451.680331545398,30.689119001755632 450.5046109985331,30.627238972973267 449.31538935447924,30.627238972973267C448.0429109444274,30.627238972973267 446.7884339972939,30.693619367485258 445.5485832387819,30.80725360215833L445.5485832387819,26.321514061153103L444.96803605966,26.321514061153103L444.96803605966,30.863508173778655C424.73889210498874,33.031559364026236 408.9831116855664,50.152075690957915 408.9831116855664,70.95726645902131C408.9831116855664,91.76470740994952 424.7433924707183,108.88747391974601 444.97703679111925,111.05102474426398L444.97703679111925,116.32882865368344L445.53958250732245,116.32882865368344L445.53958250732245,111.10390404158706C446.78280854013195,111.21978845912496 448.0406607615625,111.28616885363694 449.3142642630469,111.28616885363694C450.5079862728303,111.28616885363694 451.68483191112756,111.22316373342217 452.85267681796563,111.12190550450556L452.85267681796563,116.32770356225106L453.41522253416895,116.32770356225106L453.41522253416895,111.08027712150653C473.7591258149457,109.025860165932 489.64316665766245,91.84571399308281 489.6454168405273,70.9572664590213zM449.31538935447924,110.72362313743363C438.32999660846093,110.72362313743363 428.3909388945808,106.2738865222654 421.1926039100431,99.07555153772778C413.9976441998027,91.879466736055 409.54565740176974,81.93928393074242 409.54565740176974,70.9572664590213C409.54565740176974,59.972998804435385 413.9976441998027,50.03394109055522 421.1926039100431,42.83560610601759C428.3909388945808,35.6406463957772 438.32999660846093,31.18865959774417 449.31538935447924,31.18865959774417C460.29628173476794,31.18865959774417 470.2353394486482,35.6406463957772 477.4336744331858,42.83560610601759C484.62863414342615,50.0339410905552 489.08062094145913,59.97299880443538 489.08062094145913,70.9572664590213C489.08062094145913,81.9392839307424 484.62863414342615,91.88059182748741 477.4336744331858,99.07555153772778C470.2353394486482,106.2738865222654 460.29628173476794,110.72362313743363 449.31538935447924,110.72362313743363z" fill="#e97c76" stroke-width="1.1"/>
        <path d="M432.31975817654467,68.79146545163854L432.31975817654467,68.23116991830005L443.85419554157744,68.23116991830005L443.85419554157744,61.19934846575861L444.41449107491593,61.19934846575861L444.41449107491593,68.79146545163854L432.31975817654467,68.79146545163854z" fill="#e97c76" stroke-width="1.1"/>
        <path d="M443.8519453587126,81.45099424907795L443.8519453587126,73.29183118126507L432.31975817654467,73.29408136412987L432.31975817654467,72.73041055649416L444.4122408920511,72.73041055649416L444.4122408920511,81.45099424907795L444.41449107491593,81.45099424907795L443.8519453587126,81.45099424907795z" fill="#e97c76" stroke-width="1.1"/>
        <path d="M453.9777682503722,68.79146545163854L453.9777682503722,61.19934846575861L453.9800184332372,61.19934846575861L454.54031396657564,61.19934846575861L454.5369386922784,68.23229500973245L464.94740971633695,68.23229500973245L464.94740971633695,68.79146545163854L453.9777682503722,68.79146545163854z" fill="#e97c76" stroke-width="1.1"/>
        <path d="M453.9777682503722,81.45099424907795L453.9777682503722,72.73153564792655L464.94740971633695,72.73153564792655L464.94740971633695,73.29295627269747L454.54031396657564,73.29295627269747L454.54031396657564,81.45099424907795L453.9777682503722,81.45099424907795z" fill="#e97c76" stroke-width="1.1"/>
        <path d="M451.8074668772599,70.6669928694604C451.8074668772599,72.23199505193801 450.5372386500728,73.5010981876927 448.9722364675952,73.5010981876927C447.4072342851177,73.5010981876927 446.13925624079536,72.23199505193801 446.13925624079536,70.6669928694604C446.13925624079536,69.10086559555037 447.4072342851177,67.8317624597957 448.9722364675952,67.8317624597957C450.5372386500728,67.8317624597957 451.8074668772599,69.10086559555036 451.8074668772599,70.6669928694604" fill="#e97c76" stroke-width="1.1"/>
      </g>
      <g id="FACE OFF CIRCLE">
        <path d="M86.66129267255307,148.17791692225032L86.66129267255307,143.32989794001017L86.04586765902663,143.32989794001017L86.04586765902663,148.13066308208926C84.97815588967275,148.04628122465877 83.902568480292,147.9900266530384 82.81235488228998,147.9900266530384C81.06621297919489,147.9900266530384 79.34932345334238,148.11266161917075 77.66168630473243,148.32867917419279L77.66168630473243,143.33102303144256L77.04626129120602,143.33102303144256L77.04626129120602,148.40856066589367C57.50454820173525,151.20778814972135 42.48120230480953,168.00652832698475 42.48120230480953,188.3223043219513C42.48120230480953,208.64933123124183 57.522549664653766,225.45594704853207 77.08113912561062,228.2394232523061L77.08113912561062,233.33721253254052L77.62568337889542,233.33721253254052L77.62568337889542,228.30917892111532C79.32457144182942,228.52632156756968 81.05383697343841,228.65233180799927 82.81235488228997,228.65233180799927C83.91494448604847,228.65233180799927 85.00290790118568,228.59495214494663 86.08299567629602,228.5094451960837L86.08299567629602,233.33721253254052L86.62528974671602,233.33721253254052L86.62528974671602,228.46781681308457C107.10870436511115,226.5450355551017 123.14125727690563,209.30975990206454 123.14125727690563,188.32117923051885C123.14125727690563,167.34497456472965 107.12670582802966,150.11644946028696 86.66129267255307,148.17791692225032zM110.9317650524289,216.43946430922531C103.73455515932366,223.63779929376295 93.79437235401107,228.08641081749877 82.81235488228998,228.08641081749877C71.83033741056887,228.08641081749877 61.887904422391486,223.63892438519534 54.692944712151096,216.43946430922531C47.495734819045886,209.24225441612015 43.04374802101285,199.30207161080756 43.04374802101285,188.32005413908647C43.04374802101285,177.33803666736534 47.49460972761348,167.3989789534852 54.692944712151096,160.2006439689476C61.8890295138239,153.0045591672748 71.83033741056887,148.5536974606742 82.81235488228998,148.5536974606742C93.79437235401107,148.5536974606742 103.73343006789128,153.0034340758424 110.9317650524289,160.2006439689476C118.1289749455341,167.3989789534852 122.57871156070232,177.33803666736534 122.57871156070232,188.32005413908647C122.57871156070232,199.30207161080756 118.13010003696647,209.24225441612015 110.9317650524289,216.43946430922531z" fill="#e97c76" stroke-width="1.1"/>
        <path d="M77.07213839415137,198.4616283107998L77.07213839415137,191.42868176682592L66.66616773582243,191.42868176682592L66.66616773582243,190.8638858677579L77.63580920178708,190.8638858677579L77.63580920178708,198.4616283107998L77.07213839415137,198.4616283107998z" fill="#e97c76" stroke-width="1.1"/>
        <path d="M66.66504264439003,186.36577032099615L77.07213839415137,186.36352013813132L77.07213839415137,178.2077323446157L77.07438857701617,178.2077323446157L77.63468411035467,178.2077323446157L77.63468411035467,186.92606585433467L66.66504264439003,186.92831603719947L66.66504264439003,186.36577032099615z" fill="#e97c76" stroke-width="1.1"/>
        <path d="M87.19908637724343,198.4616283107998L87.19908637724343,190.8638858677579L99.2938192756147,190.867261142055L99.2938192756147,191.42868176682592L87.75938191058192,191.42868176682592L87.75938191058192,198.4616283107998L87.76163209344675,198.4616283107998L87.19908637724343,198.4616283107998z" fill="#e97c76" stroke-width="1.1"/>
        <path d="M87.19908637724343,186.92606585433467L87.19908637724343,178.2077323446157L87.75938191058192,178.2077323446157L87.75938191058192,186.36577032099615L99.2938192756147,186.36577032099615L99.2938192756147,186.92606585433467L87.19908637724343,186.92606585433467z" fill="#e97c76" stroke-width="1.1"/>
        <path d="M85.30443240507066,188.61145282007976C85.30443240507066,187.04645063760222 84.03645436074841,185.7773475018475 82.47145217827077,185.7773475018475C80.90644999579314,185.7773475018475 79.63734686003846,187.04645063760213 79.63734686003846,188.61145282007976C79.63734686003846,190.17758009398977 80.90644999579314,191.44555813831204 82.47145217827077,191.44555813831204C84.03645436074841,191.44555813831204 85.30443240507066,190.17758009398977 85.30443240507066,188.61145282007976" fill="#e97c76" stroke-width="1.1"/>
      </g>
      <g id="FACE OFF CIRCLE">
        <path d="M489.6454168405273,188.32117923051885C489.64316665766245,167.4383571536194 473.7715018207021,150.2638364379322 453.4332239970875,148.19704347660127L453.4332239970875,143.3298979400102L452.8358004464796,143.3298979400102L452.8358004464796,148.15203981930503C451.67358099680354,148.0507815903884 450.50236081566817,147.988901561606 449.31538935447924,147.988901561606C448.0474113101569,147.988901561606 446.79518454588845,148.05528195611805 445.5575839702411,148.16891619079112L445.5575839702411,143.3298979400102L444.96016041963316,143.3298979400102L444.96016041963316,148.22629585384382C424.7343917392592,150.40222268411821 408.9831116855664,167.5193637367527 408.9831116855664,188.32117923051885C408.9831116855664,209.12862018144708 424.74339247071833,226.2491365083787 444.97703679111925,228.41606260719394L444.97703679111925,233.5734817333459L445.53958250732245,233.5734817333459L445.53958250732245,228.46894190451704C446.78280854013195,228.58595141348732 448.0406607615626,228.65120671656692 449.31426426304694,228.65120671656692C450.5079862728303,228.65120671656692 451.6848319111277,228.5893266877845 452.85267681796563,228.48806845886793L452.85267681796563,233.57460682477836L453.41522253416895,233.57460682477836L453.41522253416895,228.44306480157172C473.7591258149457,226.38752275456477 489.64316665766245,209.21075185601273 489.6454168405273,188.32117923051885zM449.31538935447924,228.0886610003636C438.32999660846093,228.0886610003636 428.3909388945808,223.63892438519534 421.1926039100431,216.43946430922531C413.9976441998027,209.24225441612015 409.54565740176974,199.30319670223997 409.54565740176974,188.32117923051885C409.54565740176974,177.33691157593293 413.9976441998027,167.39785386205278 421.1926039100431,160.2006439689476C428.3909388945808,153.0045591672748 438.32999660846093,148.55257236924172 449.31538935447924,148.55257236924172C460.29628173476794,148.55257236924172 470.2353394486482,153.00455916727475 477.4336744331858,160.2006439689476C484.62863414342615,167.39785386205278 489.08062094145913,177.33691157593293 489.08062094145913,188.32117923051885C489.08062094145913,199.30319670223997 484.62863414342615,209.24225441612015 477.4336744331858,216.43946430922531C470.2353394486482,223.63892438519534 460.29628173476794,228.0886610003636 449.31538935447924,228.0886610003636z" fill="#e97c76" stroke-width="1.1"/>
        <path d="M443.8519453587126,198.46050321936738L443.8519453587126,191.4264315839612L432.31975817654467,191.42868176682592L432.31975817654467,190.86613605062269L444.4122408920511,190.86613605062269L444.4122408920511,198.46050321936738L444.41449107491593,198.46050321936738L443.8519453587126,198.46050321936738z" fill="#e97c76" stroke-width="1.1"/>
        <path d="M432.31975817654467,186.36577032099615L443.85419554157744,186.36577032099615L443.85419554157744,178.2088574360481L444.41449107491593,178.2088574360481L444.41449107491593,186.92606585433467L432.31975817654467,186.92831603719947L432.31975817654467,186.36577032099615z" fill="#e97c76" stroke-width="1.1"/>
        <path d="M453.9777682503722,198.46050321936738L453.9777682503722,190.86613605062269L464.94740971633695,190.86613605062269L464.94740971633695,191.42868176682592L454.54031396657564,191.4264315839612L454.54031396657564,198.46050321936738L453.9777682503722,198.46050321936738z" fill="#e97c76" stroke-width="1.1"/>
        <path d="M453.9777682503722,186.92719094576708L453.9777682503722,178.2088574360481L453.9800184332372,178.2088574360481L454.54031396657564,178.2088574360481L454.5369386922784,186.36464522956376L464.94740971633695,186.36689541242853L464.94740971633695,186.92719094576708L453.9777682503722,186.92719094576708z" fill="#e97c76" stroke-width="1.1"/>
        <path d="M451.8074668772599,188.61145282007976C451.8074668772599,187.04645063760222 450.5372386500728,185.7773475018475 448.9722364675952,185.7773475018475C447.4072342851177,185.7773475018475 446.13925624079536,187.04645063760213 446.13925624079536,188.61145282007976C446.13925624079536,190.17758009398977 447.4072342851177,191.44555813831204 448.9722364675952,191.44555813831204C450.5372386500728,191.44555813831204 451.8074668772599,190.17758009398977 451.8074668772599,188.61145282007976" fill="#e97c76" stroke-width="1.1"/>
      </g>
      <path d="M225.55495509458393,129.9491855343981C225.55495509458393,107.7320050186644 243.56541874454925,89.72154136869908 265.7803490774181,89.72154136869908L265.7803490774181,89.72154136869908C287.9964045017195,89.72154136869908 306.00686815168484,107.7320050186644 306.00686815168484,129.9491855343981L306.00686815168484,129.9491855343981L306.00911833454967,129.9491855343981C306.00686815168484,152.16411586726701 287.99640450171955,170.17457951723236 265.7803490774182,170.17457951723236L265.7803490774182,170.17457951723236C243.56541874454925,170.1745795172323 225.55495509458393,152.1652409586994 225.55495509458393,129.9491855343981L225.55495509458393,129.9491855343981zM237.73406985038565,101.90290630736563C230.5571116030638,109.07986455468753 226.11750081078722,118.99529534848718 226.11750081078722,129.9503106258305L226.11750081078722,129.9503106258305C226.11750081078722,140.90195062887662 230.5571116030638,150.81850651410866 237.73406985038565,157.99771494429535L237.73406985038565,157.99771494429535C244.91327828057237,165.17354810018477 254.82533380007476,169.6131588924614 265.7803490774181,169.6131588924614L265.7803490774181,169.6131588924614C276.7319890804643,169.6131588924614 286.64967005712873,165.17354810018483 293.8288784873154,157.99771494429535L293.8288784873154,157.99771494429535C301.0058367346373,150.81850651410866 305.44432243548147,140.90307572030903 305.44432243548147,129.9503106258305L305.44432243548147,129.9503106258305C305.44432243548147,118.99642043991953 301.0058367346373,109.07986455468752 293.8288784873154,101.90290630736563L293.8288784873154,101.90290630736563C286.6496700571286,94.72482296861132 276.73311417189666,90.28521217633477 265.78034907741807,90.28521217633477L265.78034907741807,90.28521217633477C254.82645889150714,90.28521217633481 244.91327828057237,94.72482296861136 237.73406985038565,101.90290630736563L237.73406985038565,101.90290630736563z" id="CENTER FACE OFF" fill="#e97c76" stroke-width="1.1"/>
      <g id="FACE OFF SPOTS">
        <path d="M320.55655055556736,71.48155906652279C320.55655055556736,72.87442225984222 319.426958757431,74.00288896654605 318.0340955641116,74.00288896654605C316.64348255365707,74.00288896654605 315.5116405726559,72.87442225984222 315.5116405726559,71.4815590665228C315.5116405726559,70.08982096463579 316.643482553657,68.95910407506715 318.0340955641116,68.95910407506715C319.426958757431,68.95910407506715 320.55655055556736,70.08869587320339 320.55655055556736,71.48155906652279" fill="#e97c76" stroke-width="1.1"/>
        <path d="M216.612728389816,71.48155906652279C216.612728389816,72.87442225984222 215.48426168311218,74.00288896654605 214.09139848979277,74.00288896654605C212.69853529647335,74.00288896654605 211.57006858976945,72.87442225984222 211.57006858976945,71.4815590665228C211.57006858976945,70.08982096463579 212.69853529647332,68.95910407506715 214.09139848979277,68.95910407506715C215.48426168311218,68.95910407506715 216.612728389816,70.08869587320339 216.612728389816,71.48155906652279" fill="#e97c76" stroke-width="1.1"/>
        <path d="M320.55655055556736,188.41568691084103C320.55655055556736,189.80855010416045 319.426958757431,190.9370168108643 318.0340955641116,190.9370168108643C316.64348255365707,190.9370168108643 315.5116405726559,189.80855010416047 315.5116405726559,188.41568691084103C315.5116405726559,187.02282371752162 316.643482553657,185.89435701081774 318.0340955641116,185.89435701081774C319.426958757431,185.89435701081774 320.55655055556736,187.02282371752165 320.55655055556736,188.41568691084103" fill="#e97c76" stroke-width="1.1"/>
        <path d="M216.612728389816,188.41568691084103C216.612728389816,189.80855010416045 215.48426168311218,190.9370168108643 214.09139848979277,190.9370168108643C212.69853529647335,190.9370168108643 211.57006858976945,189.80855010416047 211.57006858976945,188.41568691084103C211.57006858976945,187.02282371752162 212.69853529647332,185.89435701081774 214.09139848979277,185.89435701081774C215.48426168311218,185.89435701081774 216.612728389816,187.02282371752165 216.612728389816,188.41568691084103" fill="#e97c76" stroke-width="1.1"/>
      </g>
      <path d="M266.0627470269522,44.39498283133319C251.15416045613193,44.36460536265822 239.049301734869,32.296874658664706 238.57001278466376,16.876371486099444L239.13255850086708,16.876371486099444C239.58597034812698,31.977348691861224 251.461310417179,43.81218546934656 266.0627470269522,43.81218546934656C280.66305854529304,43.81218546934656 292.5406487972098,31.97622360042882 292.9929355530373,16.876371486099448L293.5554812692406,16.876371486099448C293.07506722760303,32.296874658664706 280.9713335977725,44.36460536265822 266.0627470269522,44.39498283133319z" id="PENALTY" fill="#e97c76" stroke-width="1.1"/>
      <g id="BLUE LINES">
        <path d="M197.9947153663511,16.876371486099444L201.36998966357098,16.876371486099444L201.36998966357098,243.01974939983194L197.9947153663511,243.01974939983194z" fill="#708bb3" stroke-width="1.1"/>
        <path d="M330.75437929890103,16.876371486099444L334.1319037789857,16.876371486099444L334.1319037789857,243.01974939983194L330.75437929890103,243.01974939983194z" fill="#708bb3" stroke-width="1.1"/>
      </g>
      <g id="GOAL 2">
        <path d="M30.39772032076232,140.63642905082867L42.4091964531355,140.63642905082867C45.09478970229013,137.2611547536088 46.745298833630656,134.0400179826286 46.745298833630656,129.94806044296567C46.745298833630656,125.85722799473521 45.09478970229013,121.50987469991597 42.4091964531355,119.2596918351027L30.39772032076232,119.2596918351027L30.39772032076232,140.63642905082867z" fill="#b0d6e9" stroke-width="1.1"/>
        <path d="M24.89264794199669,138.1049733279138C22.709970563127822,138.09597259645452 20.02887767970282,136.77736543767395 19.990624571000996,134.4247992525117L19.990624571000996,134.4247992525117L19.990624571000996,126.30501438483306C20.030002771135237,123.99070130837259 22.627838888562138,121.81814975239539 24.89264794199669,121.78889737515283L24.89264794199669,121.78889737515283L30.398845412194728,121.78889737515283L30.398845412194728,122.07129532468687L30.398845412194728,121.78889737515283L30.678993178863973,121.78889737515283L30.678993178863973,138.10384823648135L24.89264794199669,138.10384823648135L24.89264794199669,138.1049733279138zM21.983161497793137,123.61492076994877C21.130342192028913,124.37323239539084 20.549795012907094,125.37456377023277 20.552045195771914,126.30726456769784L20.552045195771914,126.30726456769784L20.55429537863672,134.4270494353765C20.55654556150153,136.26094847019928 22.886609918015658,137.54130252027804 24.89264794199669,137.5435527031429L24.89264794199669,137.5435527031429L30.116447462660663,137.5435527031429L30.116447462660663,122.35481836565336L24.89264794199669,122.35481836565336C24.890397759131872,122.35481836565336 24.88814757626706,122.35481836565336 24.885897393402242,122.35481836565336L24.885897393402242,122.35481836565336C23.93519513301864,122.35369327422097 22.831480437827736,122.85435896164189 21.983161497793137,123.61492076994877L21.983161497793137,123.61492076994877z" fill="#bcbec0" stroke-width="1.1"/>
        <path d="M24.490990300627523,133.86225353630837L24.490990300627523,126.87093537533357C24.52811831789693,124.84914607129888 26.720921519657455,122.94436627623445 28.704457714990347,122.91623899042428L28.704457714990347,122.91623899042428L30.396595229329918,122.91623899042428L30.396595229329918,123.19526166566112L30.396595229329918,122.91623899042428L30.678993178863976,122.91623899042428L30.678993178863976,136.97763171264234L28.70445771499035,136.97988189550716C26.819929565709238,136.97650662120992 24.524743043599713,135.92792140620693 24.490990300627523,133.86225353630837L24.490990300627523,133.86225353630837zM26.249508209479078,124.56224775603516C25.53169987560365,125.21592587826338 25.0479105596688,126.0811211897841 25.052410925398426,126.87093537533357L25.052410925398426,126.87093537533357L25.052410925398426,133.86225353630837C25.056911291128053,135.40925425586747 26.974067091948953,136.4139609050066 28.704457714990347,136.4162110878714L28.704457714990347,136.4162110878714L30.11644746266066,136.4162110878714L30.11644746266066,123.4787847066276L28.704457714990347,123.4787847066276C28.701082440693128,123.4787847066276 28.69658207496349,123.4787847066276 28.692081709233868,123.4787847066276L28.692081709233868,123.4787847066276C27.888766426495533,123.4787847066276 26.960565994760067,123.9096947252393 26.249508209479078,124.56224775603516L26.249508209479078,124.56224775603516z" fill="#bcbec0" stroke-width="1.1"/>
        <path d="M20.273022520535058,130.22933330106736L20.273022520535058,129.66678758486407L24.77226315872917,129.66678758486407L24.77226315872917,130.22933330106736L20.273022520535058,130.22933330106736z" fill="#bcbec0" stroke-width="1.1"/>
        <path d="M30.11757255409307,105.57295455987605L0.020251645783319328,92.3407542233417L0.020251645783319328,92.95842941973295L30.105196548336593,106.18612939053764L30.105196548336593,153.42871863729206L0.020251645783319328,166.93544128333363L0.020251645783319328,167.55536666258968L30.11757255409307,154.04076837652124z" fill="#e97c76" stroke-width="1.1"/>
        <path d="M30.11757255409307,17.789945729213628L30.11757255409307,105.525700719715L30.11757255409307,153.99238944492774L30.11757255409307,242.1050500652854C30.30546282330498,242.14667844828438 30.489977818219668,242.19730756274274 30.678993178863973,242.2344355800121L30.678993178863973,153.73924387263625L30.678993178863973,153.56147942631603L30.678993178863973,105.77322083484447L30.678993178863973,17.660560214486864C30.489977818219668,17.698813323188688 30.304337731872568,17.748317346214577 30.11757255409307,17.789945729213628z" fill="#e97c76" stroke-width="1.1"/>
        <path d="M30.396595229329915,140.91657681749794L30.116447462660663,140.91657681749794L30.116447462660663,118.97841897700107L42.5104546820521,118.97841897700107L42.58808599088815,119.04592446294545C45.36143637177049,121.37823900232439 47.019821143137875,125.78522214306116 47.026571691732315,129.94806044296567L47.026571691732315,129.94806044296567C47.026571691732315,134.11989947432951 45.33330908596033,137.41641737128091 42.629714373887204,140.8108182228517L42.629714373887204,140.8108182228517L42.54195724215948,140.91657681749794L30.396595229329915,140.91657681749794L30.396595229329915,140.91657681749794zM42.274185481246704,140.355156192727C44.88889797015971,137.03838664999228 46.46065070123177,133.91738301649627 46.46290088409658,129.94806044296567L46.46290088409658,129.94806044296567C46.46965143269102,125.97086222940827 44.85739541005233,121.72589225493803 42.30456294992169,119.54096469320439L42.30456294992169,119.54096469320439L30.678993178863976,119.54096469320439L30.678993178863976,140.355156192727L42.274185481246704,140.355156192727L42.274185481246704,140.355156192727z" fill="#e97c76" stroke-width="1.1"/>
        <path d="M40.24227035432033,140.91770190893033L40.24227035432033,138.6675190441171L40.80369097909125,138.6675190441171L40.80369097909125,140.91770190893033L40.24227035432033,140.91770190893033z" fill="#e97c76" stroke-width="1.1"/>
        <path d="M40.24339544575273,121.22860184181431L40.24339544575273,118.97841897700107L40.80369097909125,118.97841897700107L40.80369097909125,121.22860184181431L40.24339544575273,121.22860184181431z" fill="#e97c76" stroke-width="1.1"/>
      </g>
      <g id="GOAL 1">
        <path d="M502.9372470229792,140.63642905082867L490.8053861073385,140.63642905082867C488.117542675319,137.2611547536088 486.46815863541093,134.0400179826286 486.46815863541093,129.94806044296567C486.46815863541093,125.85722799473521 488.11866776675146,121.50987469991597 490.8053861073385,119.2596918351027L502.9372470229792,119.2596918351027L502.9372470229792,140.63642905082867z" fill="#b0d6e9" stroke-width="1.1"/>
        <path d="M502.6559741648776,138.1049733279138L502.6559741648776,122.0724204161193L502.6559741648776,121.79227264945008L508.32305970990967,121.79227264945008C510.6238716891814,121.80914902093615 512.2147509746043,124.0908344458568 512.2170011574691,126.30726456769784L512.2170011574691,126.30726456769784L512.2170011574691,134.42817452680893C512.2147509746043,136.67385702589252 510.52936400885915,138.10159805361656 508.32305970990967,138.10722351077857L508.32305970990967,138.10722351077857L502.6559741648776,138.10722351077857L502.6559741648776,138.1049733279138zM503.2162696982161,137.54242761171048L508.32305970990967,137.54242761171048C510.2987202652157,137.52330105735956 511.64320452694176,136.36783215627793 511.65670562413067,134.4270494353765L511.65670562413067,134.4270494353765L511.65670562413067,126.30613947626544C511.65220525840095,124.33272910382424 510.2042125848936,122.35594345708574 508.32305970990967,122.35144309135615L508.32305970990967,122.35144309135615L503.2162696982161,122.35144309135615L503.2162696982161,137.54242761171048L503.2162696982161,137.54242761171048z" fill="#bcbec0" stroke-width="1.1"/>
        <path d="M502.6559741648776,136.97988189550716L502.6559741648776,123.19751184852593L502.6559741648776,122.91511389899186L504.50787466261886,122.91511389899186C506.5386646981128,122.93424045334278 507.7143852449778,124.96840576313397 507.71888561070733,126.87093537533357L507.71888561070733,126.87093537533357L507.71888561070733,133.86225353630837C507.7143852449778,135.7985358914802 506.4250304634399,136.97650662120992 504.50787466261886,136.97988189550716L504.50787466261886,136.97988189550716L502.6559741648776,136.97988189550716L502.6559741648776,136.97988189550716zM503.2162696982161,136.41733617930385L504.50787466261886,136.41733617930385C506.20451254268806,136.38920889349365 507.1270875172615,135.53863977059422 507.15408971163924,133.86225353630837L507.15408971163924,133.86225353630837L507.15408971163924,126.87093537533357C507.1518395287744,125.15967130664308 506.09312849087985,123.48328507235723 504.50787466261886,123.47765961519518L504.50787466261886,123.47765961519518L503.2162696982161,123.47765961519518L503.2162696982161,136.41733617930385L503.2162696982161,136.41733617930385z" fill="#bcbec0" stroke-width="1.1"/>
        <path d="M507.43761275260573,130.2000809238248L507.43761275260573,129.69603996210662L511.9379784822322,129.69603996210662L511.9379784822322,130.2000809238248L507.43761275260573,130.2000809238248z" fill="#bcbec0" stroke-width="1.1"/>
        <path d="M503.2252704296752,153.4309688201569L503.2252704296752,106.18387920767287L532.1896242655516,92.9348024996524L532.1896242655516,92.31150184609915L503.2162696982161,105.56845419414645L503.2162696982161,154.04976910798052L532.1896242655516,167.58574413126468L532.1896242655516,166.96244347771142z" fill="#e97c76" stroke-width="1.1"/>
        <path d="M502.65372398201276,17.919331243940388L502.65372398201276,105.77659610914168L502.65372398201276,153.73699368977148L502.65372398201276,241.97678964199105C502.84048915979224,241.93291107612717 503.0295045204366,241.89578305885772 503.2162696982161,241.8474041272642L503.2162696982161,154.0025152678194L503.2162696982161,105.52007526255298L503.2162696982161,18.048716758667148C503.0295045204366,18.00146291850607 502.84048915979224,17.963209809804244 502.65372398201276,17.919331243940388z" fill="#e97c76" stroke-width="1.1"/>
        <path d="M490.648998398234,140.91770190893033L490.56574163223587,140.8096931314193C487.8610218287304,137.41641737128091 486.16888431439065,134.11989947432951 486.16888431439065,129.94806044296567L486.16888431439065,129.94806044296567C486.1756348629851,125.78184686876394 487.83401963435267,121.37598881945961 490.60511983237,119.04479937151305L490.60511983237,119.04479937151305L490.6816260497737,118.97729388556866L503.0778834520299,118.97729388556866L503.0778834520299,140.63642905082867L503.0778834520299,140.91770190893033L490.648998398234,140.91770190893033L490.648998398234,140.91770190893033zM502.7966105939284,140.63642905082867L502.7966105939284,140.355156192727L502.7966105939284,140.63642905082867L502.7966105939284,140.63642905082867zM502.51758791869156,140.355156192727L502.51758791869156,119.54096469320439L490.89089305620143,119.54096469320439C488.33693550463835,121.72701734637046 486.7269296648645,125.97198732084067 486.73368021345885,129.9491855343981L486.73368021345885,129.9491855343981C486.73368021345885,133.91625792506392 488.3043078530985,137.03838664999228 490.9223956163088,140.35628128415942L490.9223956163088,140.35628128415942L502.51758791869156,140.35628128415942L502.51758791869156,140.355156192727z" fill="#e97c76" stroke-width="1.1"/>
        <path d="M492.389514844167,140.91770190893033L492.389514844167,138.6675190441171L492.9543107432351,138.6675190441171L492.9543107432351,140.91770190893033L492.389514844167,140.91770190893033z" fill="#e97c76" stroke-width="1.1"/>
        <path d="M492.389514844167,121.22860184181431L492.389514844167,118.97841897700107L492.9543107432351,118.97841897700107L492.9543107432351,121.22860184181431L492.389514844167,121.22860184181431z" fill="#e97c76" stroke-width="1.1"/>
      </g>
      <g id="FACE OFF CIRCLES">
        <path d="M66.66504264439003,68.23004482686763L77.07213839415137,68.23004482686763L77.07213839415137,61.19934846575861L77.63468411035467,61.19934846575861L77.63468411035467,68.79146545163854L66.66504264439003,68.79371563450336L66.66504264439003,68.23004482686763z" fill="#e97c76" stroke-width="1.1"/>
        <path d="M77.07213839415137,81.45099424907795L77.07213839415137,73.29295627269747L66.66616773582243,73.29295627269747L66.66616773582243,72.73041055649416L77.63468411035467,72.73041055649416L77.63468411035467,81.45099424907795L77.07213839415137,81.45099424907795z" fill="#e97c76" stroke-width="1.1"/>
        <path d="M87.20021146867583,68.79146545163854L87.20021146867583,61.19934846575861L87.75938191058192,61.19934846575861L87.75938191058192,68.23004482686763L99.2926941841823,68.23229500973245L99.2926941841823,68.79146545163854L87.20021146867583,68.79146545163854z" fill="#e97c76" stroke-width="1.1"/>
        <path d="M87.19908637724343,81.45099424907795L87.19908637724343,72.73041055649416L99.2938192756147,72.73266073935898L99.2938192756147,73.29295627269747L87.75938191058192,73.29295627269747L87.75938191058192,81.45099424907795L87.76275718487913,81.45099424907795L87.19908637724343,81.45099424907795z" fill="#e97c76" stroke-width="1.1"/>
        <path d="M85.30443240507066,70.6669928694604C85.30443240507066,72.23199505193801 84.03645436074841,73.5010981876927 82.47145217827077,73.5010981876927C80.90644999579314,73.5010981876927 79.63734686003846,72.23199505193801 79.63734686003846,70.6669928694604C79.63734686003846,69.10086559555037 80.90644999579314,67.8317624597957 82.47145217827077,67.8317624597957C84.03645436074841,67.8317624597957 85.30443240507066,69.10086559555036 85.30443240507066,70.6669928694604" fill="#e97c76" stroke-width="1.1"/>
        <path d="M86.63766575247251,30.81062887645555L86.63766575247251,26.32038896972069L86.07061967053959,26.32038896972069L86.07061967053959,30.766750310591696C84.99503226115883,30.681243361728786 83.91044412031884,30.62498879010845 82.81235488228997,30.62498879010845C81.05721224773562,30.62498879010845 79.33357217328867,30.74874884767318 77.6369342932195,30.967016585560067L77.6369342932195,30.90738673964252L77.6369342932195,26.321514061153092L77.07101330271894,26.321514061153092L77.07101330271894,30.90738673964252L77.07101330271894,31.037897345801685C57.518049298924126,33.82699900673772 42.48232739624193,50.63136464116313 42.48232739624193,70.9572664590213C42.48232739624193,91.27979300258225 57.51917439035654,108.08415863700766 77.07326348558377,110.8732602979437L77.07326348558377,116.32657847081865L77.63580920178708,116.32657847081865L77.63580920178708,110.94526614961772C79.33132199042389,111.16240879607223 81.05721224773563,111.28841903650176 82.81235488228998,111.28841903650176C83.91156921175127,111.28841903650176 84.99615735259124,111.23103937344904 86.07286985340438,111.14553242458611L86.07286985340438,116.32657847081865L86.6354155696077,116.32657847081865L86.6354155696077,111.10277895015467C107.11432982227318,109.1732471435773 123.14238236833802,91.94022167340493 123.14238236833802,70.95839155045371C123.14238236833802,49.97431124463767 107.11545491370562,32.7379105001681 86.63766575247251,30.81062887645555zM110.93063996099647,99.07555153772778C103.73343006789128,106.2738865222654 93.79437235401107,110.72362313743363 82.81235488228998,110.72362313743363C71.83146250200129,110.72362313743363 61.88902951382389,106.2738865222654 54.69181962071867,99.07555153772778C47.49460972761347,91.879466736055 43.04487311244525,81.93928393074242 43.04487311244525,70.95839155045371C43.04487311244525,59.9729988044354 47.494609727613465,50.03394109055522 54.69181962071867,42.83785628888242C61.88902951382389,35.64064639577721 71.83146250200129,31.18978468917658 82.81235488228998,31.18978468917658C93.79437235401107,31.18978468917658 103.73343006789128,35.639521304344804 110.93063996099647,42.83785628888242C118.12784985410168,50.03394109055522 122.5798366521347,59.9729988044354 122.5798366521347,70.95839155045371C122.58096174356714,81.9392839307424 118.1289749455341,91.879466736055 110.93063996099647,99.07555153772778z" fill="#e97c76" stroke-width="1.1"/>
      </g>
      <g id="CENTER LINE">
        <path d="M264.3751098783423,16.876371486099444L267.75150926699456,16.876371486099444L267.75150926699456,243.01974939983194L264.3751098783423,243.01974939983194z" fill="#e97c76" stroke-width="1.1"/>
        <path d="M265.5002013107489,243.01974939983194L265.5002013107489,239.64447510261206L266.6252927431555,239.64447510261206L266.6252927431555,243.01974939983194L265.5002013107489,243.01974939983194z" fill="#ffffff" stroke-width="1.1"/>
        <path d="M265.5002013107489,236.2692008053922L265.5002013107489,232.89392650817226L266.6252927431555,232.89392650817226L266.6252927431555,236.2692008053922L265.5002013107489,236.2692008053922z" fill="#ffffff" stroke-width="1.1"/>
        <path d="M265.5002013107489,229.51752711951997L265.5002013107489,226.1433779137325L266.6252927431555,226.1433779137325L266.6252927431555,229.51752711951997L265.5002013107489,229.51752711951997z" fill="#ffffff" stroke-width="1.1"/>
        <path d="M265.5002013107489,222.7681036165126L265.5002013107489,219.3928293192928L266.6252927431555,219.3928293192928L266.6252927431555,222.7681036165126L265.5002013107489,222.7681036165126z" fill="#ffffff" stroke-width="1.1"/>
        <path d="M265.5002013107489,216.01755502207286L265.5002013107489,212.64115563342057L266.6252927431555,212.64115563342057L266.6252927431555,216.01755502207286L265.5002013107489,216.01755502207286z" fill="#ffffff" stroke-width="1.1"/>
        <path d="M265.5002013107489,209.26700642763305L265.5002013107489,205.89173213041323L266.6252927431555,205.89173213041323L266.6252927431555,209.26700642763305L265.5002013107489,209.26700642763305z" fill="#ffffff" stroke-width="1.1"/>
        <path d="M265.5002013107489,202.5153327417609L265.5002013107489,199.14118353597337L266.6252927431555,199.14118353597337L266.6252927431555,202.5153327417609L265.5002013107489,202.5153327417609z" fill="#ffffff" stroke-width="1.1"/>
        <path d="M265.5002013107489,195.76590923875352L265.5002013107489,192.39063494153362L266.6252927431555,192.39063494153362L266.6252927431555,195.76590923875352L265.5002013107489,195.76590923875352z" fill="#ffffff" stroke-width="1.1"/>
        <path d="M265.5002013107489,189.01536064431377L265.5002013107489,185.64008634709384L266.6252927431555,185.64008634709384L266.6252927431555,189.01536064431377L265.5002013107489,189.01536064431377z" fill="#ffffff" stroke-width="1.1"/>
        <path d="M265.5002013107489,182.26481204987397L265.5002013107489,178.8884126612217L266.6252927431555,178.8884126612217L266.6252927431555,182.26481204987397L265.5002013107489,182.26481204987397z" fill="#ffffff" stroke-width="1.1"/>
        <path d="M265.5002013107489,175.51426345543416L265.5002013107489,172.13898915821432L266.6252927431555,172.13898915821432L266.6252927431555,175.51426345543416L265.5002013107489,175.51426345543416z" fill="#ffffff" stroke-width="1.1"/>
        <path d="M265.5002013107489,168.762589769562L265.5002013107489,165.3884405637745L266.6252927431555,165.3884405637745L266.6252927431555,168.762589769562L265.5002013107489,168.762589769562z" fill="#ffffff" stroke-width="1.1"/>
        <path d="M265.5002013107489,162.01316626655463L265.5002013107489,158.63789196933476L266.6252927431555,158.63789196933476L266.6252927431555,162.01316626655463L265.5002013107489,162.01316626655463z" fill="#ffffff" stroke-width="1.1"/>
        <path d="M265.5002013107489,155.26149258068244L265.5002013107489,151.88734337489495L266.6252927431555,151.88734337489495L266.6252927431555,155.26149258068244L265.5002013107489,155.26149258068244z" fill="#ffffff" stroke-width="1.1"/>
        <path d="M265.5002013107489,148.51206907767508L265.5002013107489,145.1356696890228L266.6252927431555,145.1356696890228L266.6252927431555,148.51206907767508L265.5002013107489,148.51206907767508z" fill="#ffffff" stroke-width="1.1"/>
        <path d="M265.5002013107489,141.76152048323527L265.5002013107489,138.38624618601543L266.6252927431555,138.38624618601543L266.6252927431555,141.76152048323527L265.5002013107489,141.76152048323527z" fill="#ffffff" stroke-width="1.1"/>
        <path d="M265.5002013107489,121.50874960848355L265.5002013107489,118.1346004026961L266.6252927431555,118.1346004026961L266.6252927431555,121.50874960848355L265.5002013107489,121.50874960848355z" fill="#ffffff" stroke-width="1.1"/>
        <path d="M265.5002013107489,114.75932610547622L265.5002013107489,111.38405180825633L266.6252927431555,111.38405180825633L266.6252927431555,114.75932610547622L265.5002013107489,114.75932610547622z" fill="#ffffff" stroke-width="1.1"/>
        <path d="M265.5002013107489,108.007652419604L265.5002013107489,104.63350321381652L266.6252927431555,104.63350321381652L266.6252927431555,108.007652419604L265.5002013107489,108.007652419604z" fill="#ffffff" stroke-width="1.1"/>
        <path d="M265.5002013107489,101.25822891659665L265.5002013107489,97.88182952794435L266.6252927431555,97.88182952794435L266.6252927431555,101.25822891659665L265.5002013107489,101.25822891659665z" fill="#ffffff" stroke-width="1.1"/>
        <path d="M265.5002013107489,94.50768032215689L265.5002013107489,91.13240602493698L266.6252927431555,91.13240602493698L266.6252927431555,94.50768032215689L265.5002013107489,94.50768032215689z" fill="#ffffff" stroke-width="1.1"/>
        <path d="M265.5002013107489,87.7560066362847L265.5002013107489,84.38185743049722L266.6252927431555,84.38185743049722L266.6252927431555,87.7560066362847L265.5002013107489,87.7560066362847z" fill="#ffffff" stroke-width="1.1"/>
        <path d="M265.5002013107489,81.00658313327732L265.5002013107489,77.63130883605744L266.6252927431555,77.63130883605744L266.6252927431555,81.00658313327732L265.5002013107489,81.00658313327732z" fill="#ffffff" stroke-width="1.1"/>
        <path d="M265.5002013107489,74.25490944740513L265.5002013107489,70.88076024161764L266.6252927431555,70.88076024161764L266.6252927431555,74.25490944740513L265.5002013107489,74.25490944740513z" fill="#ffffff" stroke-width="1.1"/>
        <path d="M265.5002013107489,67.50548594439778L265.5002013107489,64.12908655574547L266.6252927431555,64.12908655574547L266.6252927431555,67.50548594439778L265.5002013107489,67.50548594439778z" fill="#ffffff" stroke-width="1.1"/>
        <path d="M265.5002013107489,60.75493734995799L265.5002013107489,57.3796630527381L266.6252927431555,57.3796630527381L266.6252927431555,60.75493734995799L265.5002013107489,60.75493734995799z" fill="#ffffff" stroke-width="1.1"/>
        <path d="M265.5002013107489,54.004388755518214L265.5002013107489,50.627989366865926L266.6252927431555,50.627989366865926L266.6252927431555,54.004388755518214L265.5002013107489,54.004388755518214z" fill="#ffffff" stroke-width="1.1"/>
        <path d="M265.5002013107489,47.25384016107843L265.5002013107489,43.87856586385855L266.6252927431555,43.87856586385855L266.6252927431555,47.25384016107843L265.5002013107489,47.25384016107843z" fill="#ffffff" stroke-width="1.1"/>
        <path d="M265.5002013107489,40.50216647520625L265.5002013107489,37.12801726941877L266.6252927431555,37.12801726941877L266.6252927431555,40.50216647520625L265.5002013107489,40.50216647520625z" fill="#ffffff" stroke-width="1.1"/>
        <path d="M265.5002013107489,33.75274297219889L265.5002013107489,30.377468674978996L266.6252927431555,30.377468674978996L266.6252927431555,33.75274297219889L265.5002013107489,33.75274297219889z" fill="#ffffff" stroke-width="1.1"/>
        <path d="M265.5002013107489,27.001069286326693L265.5002013107489,23.626920080539218L266.6252927431555,23.626920080539218L266.6252927431555,27.001069286326693L265.5002013107489,27.001069286326693z" fill="#ffffff" stroke-width="1.1"/>
        <path d="M265.5002013107489,20.25164578331933L265.5002013107489,16.876371486099444L266.6252927431555,16.876371486099444L266.6252927431555,20.25164578331933L265.5002013107489,20.25164578331933z" fill="#ffffff" stroke-width="1.1"/>
        <path d="M266.0638721183846,128.17266616262802C267.0443957485009,128.17266616262802 267.83926639872226,128.9675456898208 267.83926639872226,129.9480693199371C267.83926639872226,130.92859295005343 267.0443957485009,131.72345472330338 266.0638721183846,131.72345472330338C265.0833484882683,131.72345472330338 264.28847783804696,130.92859295005343 264.28847783804696,129.9480693199371C264.28847783804696,128.9675456898208 265.0833484882683,128.17266616262802 266.0638721183846,128.17266616262802z" fill="#708bb3" stroke-width="1.1"/>
      </g>
    </symbol>
  </defs>
  <g id="BACKGROUND">
    <path d="M12972.146614375668,6545.85631489161C12972.146614375668,6887.252284390301 12630.750644876978,7228.648253888991 12289.354675378288,7228.648253888991L8353.74193899738,7228.648253888991C8012.345969498689,7228.648253888991 7670.95,6887.252284390301 7670.95,6545.85631489161L7670.95,5655.641938997382C7670.95,5314.245969498691 8012.345969498689,4972.85 8353.74193899738,4972.85L12289.354675378288,4972.85C12630.750644876978,4972.85 12972.146614375668,5314.245969498691 12972.146614375668,5655.641938997382L12972.146614375668,6545.85631489161z" id="FLOOR TRAY" transform="rotate(179.99999999999997, 7670.95, 4972.85)" fill="none" stroke="#000000" stroke-width="10"/>
    <path d="M2857.2799999999997,347.3L2058.731,517.3603L2058.689,517.3430000000001L1338.0659999999998,844.106L485.68999999999994,1682.1209999999999L28.412,2808.1470000000004L28.35,4776.066L494.4200000000002,5929.246L1364.2139999999995,6815.268L2152.825,7098.743L2857.2799999999997,7263.482L7173.68,7263.483L7854.625,7101.693L9124.729000000001,6731.414L9556.3274,6243.6027L9728.286,6049.2477L9821.5679,5819.6784L10216.630000000001,5105.518L10216.630000000001,4847.420700000001L10216.630000000001,2746.7005000000004L9729.5576,1477.051L8971.809000000001,964.6179999999999L7873.564,485.459L7173.68,347.3z" id="POCHE" fill="#f6f6f6" stroke="#d4d4d4" stroke-width="4.7"/>
    <use id="ICE HOCKEY" x="2369.65" y="2550.75" width="5321.682475283359" height="2598.9612088593144" xlink:href="#symbol_ICE HOCKEY" xmlns:xlink="http://www.w3.org/1999/xlink"/>
    <g id="200 LEVEL">
      <path d="M7942.749999999999,828.36L7360.06,1072.24L6918.219999999999,1072.24L6918.219999999999,2716.2L7199.349999999999,2716.2L7999.200000000001,852.6199999999999L7942.749999999999,828.36z" id="224" fill="#ffffff" stroke="#dddddd" stroke-width="10"/>
      <path d="M7999.209999999999,852.6199999999999L7199.36,2716.2L7321.290000000001,2716.2C7418.15,2716.2 7515.009999999999,2766.91 7585.32,2841.7999999999997L8693.15,1659.6299999999999L8786.8,1559.78L8403.43,1176.75L8083.98,1054.58L8141.379999999999,913.73L7999.209999999999,852.6199999999999z" id="225" fill="#ffffff" stroke="#dddddd" stroke-width="10"/>
      <path d="M8693.11,1659.5700000000002L7805.92,2606.36L8104.7300000000005,2961.4L9259.5,2475.32L9070.66,2003.7600000000002L8693.11,1659.5700000000002z" id="226" fill="#ffffff" stroke="#dddddd" stroke-width="10"/>
      <path d="M8103.6900000000005,4715.52L7793.44,5117.71L8696.09,6010.25L9061.64,5660.12L9255.55,5190.95L8103.6900000000005,4715.52z" id="204" fill="#ffffff" stroke="#dddddd" stroke-width="10"/>
      <path d="M7552.2300000000005,4879.22C7486.16,4936.31 7403.72,4973.05 7321.290000000001,4973.05L7208.969999999999,4973.05L7985.48,6819.549999999999L8140.19,6759.66L8093.32,6628.660000000001L8422.28,6487.51L8798.300000000001,6111.54L8795.619999999999,6108.55L8696.06,6010.38L7552.2300000000005,4879.22z" id="205" fill="#ffffff" stroke="#dddddd" stroke-width="10"/>
      <path d="M6918.2,4972.85L6918.2,4973.01zM7208.94,4973.01L6918.2,4973.01L6918.2,6609.24L7369.41,6609.24L7923.95,6843.3099999999995L7985.47,6819.490000000001z" id="206" fill="#ffffff" stroke="#dddddd" stroke-width="10"/>
      <path d="M6918.2,6609.3L6918.2,8245.68667171245L7886.301427792715,8245.68667171245L7886.301427792715,6609.3z" id="207" transform="rotate(-180, 6918.2, 6609.3)" fill="#ffffff" stroke="#dddddd" stroke-width="10"/>
      <path d="M6918.2,2717.05L6918.2,4361.917532845033L7886.301427792715,4361.917532845033L7886.301427792715,2717.05z" id="223" transform="rotate(-180, 6918.2, 2717.05)" fill="#ffffff" stroke="#dddddd" stroke-width="10"/>
      <path d="M5033.65,5310L5033.65,6609.3L5950.099999999999,6609.3L5950.099999999999,5310z" id="208" fill="#ffffff" stroke="#dddddd" stroke-width="10"/>
      <path d="M5033.65,1072.15L5033.65,2416.2200000000003L5650.7,2416.2200000000003L5650.7,2717.02L5950.099999999999,2717.02L5950.099999999999,1072.15z" id="222" fill="#ffffff" stroke="#dddddd" stroke-width="10"/>
      <path d="M4032.63,5310L4032.63,6609.3L5033.65,6609.3L5033.65,5310z" id="209" fill="#ffffff" stroke="#dddddd" stroke-width="10"/>
      <path d="M5033.65,1072.18L4032.63,1072.18L4032.63,2717.05L4366.299999999999,2717.05L4345.6,2717.05L4345.6,2416.25L5033.65,2416.25L5033.65,1072.18z" id="221" fill="#ffffff" stroke="#dddddd" stroke-width="10"/>
      <path d="M4032.6,6609.3L4032.6,8245.68667171245L4963.099100295072,8245.68667171245L4963.099100295072,6609.3z" id="210" transform="rotate(179.99999999999994, 4032.6, 6609.3)" fill="#ffffff" stroke="#dddddd" stroke-width="10"/>
      <path d="M4032.6,2717.05L4032.6,4361.917532845033L4963.099100295072,4361.917532845033L4963.099100295072,2717.05z" id="220" transform="rotate(-180, 4032.6, 2717.05)" fill="#ffffff" stroke="#dddddd" stroke-width="10"/>
      <path d="M3261.922084578172,2724.9C3231.859535837763,2730.040155258479 3201.55830254382,2732.729575164484 3171.257069249877,2732.729575164484L3102.1,2732.729575164484L3102.1,4377.597108009517L3553.203369213683,4377.597108009517L4146.110626527339,4621.451371937153L4211.221080579895,4591.93066737119L3548.267856453494,3037.1099305245425L3333.4906774148826,3122.299247127195L3261.922084578172,2732.159443895421L3261.922084578172,2724.9z" id="219" transform="rotate(-180, 3102.1, 2724.9)" fill="#ffffff" stroke="#dddddd" stroke-width="10"/>
      <path d="M2942.5858609076895,2610.4L2859.2364734972234,2727.4500466852655L2655.95,2808.0816295534046L3318.9031265846947,4362.902366400052L3835.62894626348,4128.621528249099L4210.170367648858,3760.395054424096L3283.893067454309,2820.1578779533356L3216.239115887283,2893.270946156058L2942.5858609076895,2610.4z" id="218" transform="rotate(-180, 2655.95, 2610.4)" fill="#ffffff" stroke="#dddddd" stroke-width="10"/>
      <path d="M2486.0677105547948,2826.45L2362.755583913572,3130.3194319062773L2231.171823098221,3032.7777263352227L2028.05,3252.2897748456635L2954.327397736254,4192.526951316424L3363.6797956309492,3790.076409424526L3573.9598143342037,3272.296554075342L2486.0677105547948,2826.45z" id="217" transform="rotate(-180, 2028.05, 2826.45)" fill="#ffffff" stroke="#dddddd" stroke-width="10"/>
      <path d="M1692.152804575551,3450.2L1692.152804575551,3773.0511453521103L1570.05,4073.940190444665L2657.94210377941,4519.786744520008L2867.11843808413,4004.724596171445L2867.11843808413,3450.2z" id="216" transform="rotate(-180, 1570.05, 3450.2)" fill="#ffffff" stroke="#dddddd" stroke-width="10"/>
      <path d="M1447.9,4220.9L1447.9,4991.625689027981L2622.865633508579,4991.625689027981L2622.865633508579,4784.837273217346L2564.313591113505,4709.6055991696185L2564.313591113505,4493.404408771376L2622.865633508579,4437.052322003751L2622.865633508579,4220.9z" id="215" transform="rotate(-180, 1447.9, 4220.9)" fill="#ffffff" stroke="#dddddd" stroke-width="10"/>
      <path d="M2649.5508272619877,5309.4L1571,5762.248097701233L1694.1141169789116,6074.3394175118L1694.1141169789116,6397.848384126282L2869.079750487491,6397.848384126282L2869.079750487491,5852.639020836873L2649.5508272619877,5309.4z" id="214" transform="rotate(179.99999999999997, 1571, 5309.4)" fill="#ffffff" stroke="#dddddd" stroke-width="10"/>
      <path d="M2990.102720512459,6223.5L2040.15,7185.320034579056L2258.3450404018217,7395.482417985393L2394.025552851159,7298.3738951287805L2509.2545934351174,7590.4767735503165L3587.805323155398,7137.628675849082L3378.123820357525,6618.757816523087L2990.102720512459,6223.5z" id="213" transform="rotate(179.99999999999997, 2040.15, 6223.5)" fill="#ffffff" stroke="#dddddd" stroke-width="10"/>
      <path d="M3496.0479596978844,6821.05L2751.1,8666.613157894737L2886.536842105263,8700.063157894738L3002.3368421052633,8773.213157894737L3132.7544625487253,8583.405054079783L3396.848630382355,8317.50636469309L3462.1585572228046,8380.41198603292L4412.1111801935585,7418.591951453863L4005.1674771762373,7004.058528326057z" id="212" transform="rotate(-180, 2751.1, 6821.05)" fill="#ffffff" stroke="#dddddd" stroke-width="10"/>
      <path d="M4140.2391481071145,6843.35L3566.8619837080137,7077.423074318088L3106.3458399067235,7077.423074318088L3104.2,8361.004160093276L3216.2999999999997,8359.304160093277L3343.930415625369,8357.880062401764L3559.8605376238283,8443.838007644315L4202.2480685476285,6865.63974284857z" id="211" transform="rotate(-180, 3104.2, 6843.35)" fill="#ffffff" stroke="#dddddd" stroke-width="10"/>
      <path d="M9397.163393128178,4221.763393128178L8103.45,4220.75L8104.263393128177,4715.7033931281785L9255.453393128177,5190.863393128177L9446.563393128177,4728.483393128177L9446.563393128177,4221.763393128178z" id="203" fill="#ffffff" stroke="#dddddd" stroke-width="10"/>
      <path d="M8104.300000000001,3451.2L8103.5,4135.38L8103.5,4220.8L8103.400000000001,4220.900000000001L9420.58,4220.900000000001L9446.599999999999,4219.9L9446.599999999999,3451.2z" id="202" fill="#ffffff" stroke="#dddddd" stroke-width="10"/>
      <path d="M9259.449999999999,2475.3L8104.300000000001,2961.54L8104.300000000001,3449.1L9446.599999999999,3449.1L9446.599999999999,2942.6400000000003L9259.449999999999,2475.3z" id="201" fill="#ffffff" stroke="#dddddd" stroke-width="10"/>
      <path d="M2121.9,2792.15L2121.9,4855.47L2382.4100000000003,4696.32C2374.33,4668.93 2369.95,4640.84 2369.95,4612.76L2369.95,3084.86C2369.95,3051.7200000000003 2376.05,3018.58 2387.13,2986.57L2121.9,2792.15z" id="VIP" fill="#ffffff" stroke="#dddddd" stroke-width="10"/>
      <path d="M7805.1900000000005,2607.04L7586.08,2842.61C7586.08,2842.61 7586.08,2842.61 7586.08,2842.61C7649.63,2910.63 7691.280000000001,2998.4100000000003 7691.280000000001,3086.2L7691.280000000001,4603.05C7691.280000000001,4705.61 7634.43,4808.17 7552.240000000001,4879.21L7792.72,5116.99L8103.34,4716.41L8103.9400000000005,2962L7805.1900000000005,2607.04z" id="ICE BOX" fill="#ffffff" stroke="#dddddd" stroke-width="10"/>
      <path d="M2095.75,2327.6L1825,2620.05L1693.5500000000002,2522.55L1447.8500000000001,3127.1L1447.8500000000001,4544.45L1686.1499999999999,5148.55L1822,5051.55L2105.6,5324.3L2369.4500000000003,5058.45L2500.09,4876.97C2445.3700000000003,4828.12 2402.83,4764.84 2382.7000000000003,4697.36L2120.9,4857.29L2120.9,2790.21L2387.4700000000003,2985.62C2412.64,2913.59 2462.99,2847.3199999999997 2525.69,2799.6099999999997L2369.4500000000003,2610.2L2095.75,2327.6z" id="PARTY PIT" fill="#ffffff" stroke="#dddddd" stroke-width="10"/>
    </g>
    <g id="300 LEVEL">
      <path d="M9061.311000000002,5660.35L8696.45,6009.815100000001L9105.772271016313,6408.122271016311L9507.322271016312,5954.272271016312z" id="317" fill="#ffffff" stroke="#dddddd" stroke-width="10"/>
      <path d="M9254.744,5192.8L9061.6371,5660.1167000000005L9061.35,5660.3917L9507.3402,5954.219700000001L9735.8118,5391.9458L9254.744,5192.8z" id="316" fill="#ffffff" stroke="#dddddd" stroke-width="10"/>
      <path d="M9446.1079,4729.6L9254.7,5192.805L9735.7679,5391.9508000000005L9961.1555,4837.266600000001L9961.1555,4836.8153L9446.1079,4729.6z" id="315" fill="#ffffff" stroke="#dddddd" stroke-width="10"/>
      <path d="M9446.5975,4220.65L9446.5975,4728.5193L9446.15,4729.6023L9961.1975,4836.8177L9961.1975,4220.65z" id="314" fill="#ffffff" stroke="#dddddd" stroke-width="10"/>
      <path d="M9446.6,3450.25L9446.6,4220.649899999999L9961.2,4220.649899999999L9961.2,3450.25z" id="313" fill="#ffffff" stroke="#dddddd" stroke-width="10"/>
      <path d="M9961.1594,2831.9L9444.65,2937.8248L9446.5594,2942.5927L9446.5594,3450.201L9961.1594,3450.201L9961.1594,2831.9z" id="312" fill="#ffffff" stroke="#dddddd" stroke-width="10"/>
      <path d="M9746.039,2270.9L9259.55,2475.6022000000003L9444.666899999998,2937.8621000000003L9961.1763,2831.9373L9961.1763,2831.6974L9746.039,2270.9z" id="311" fill="#ffffff" stroke="#dddddd" stroke-width="10"/>
      <path d="M9519.2134,1679.7L9063.1,1996.8989L9070.6095,2003.7449L9259.4521,2475.3083L9259.4138,2475.3244L9259.5258,2475.6042L9746.0148,2270.9019000000003L9519.2134,1679.7z" id="310" fill="#ffffff" stroke="#dddddd" stroke-width="10"/>
      <path d="M9001.622271016311,1328.95L8784.3474,1557.293228983689L8786.7902,1559.733828983689L8693.15,1659.562928983689L9063.138,1996.8594289836888L9519.472271016311,1679.15z" id="309" fill="#ffffff" stroke="#dddddd" stroke-width="10"/>
      <path d="M6434.05,636L6434.05,1072.1825L6918.25,1072.1825L6918.25,636z" id="308" fill="#ffffff" stroke="#dddddd" stroke-width="10"/>
      <path d="M5949.8,636L5949.8,1072.1825L6434.05,1072.1825L6434.05,636z" id="307" fill="#ffffff" stroke="#dddddd" stroke-width="10"/>
      <path d="M5491.65,636L5491.65,1072.1825L5949.8,1072.1825L5949.8,636z" id="306" fill="#ffffff" stroke="#dddddd" stroke-width="10"/>
      <path d="M5033.45,636L5033.45,1072.1825L5491.65,1072.1825L5491.65,636z" id="305" fill="#ffffff" stroke="#dddddd" stroke-width="10"/>
      <path d="M4532.85,636L4532.85,1072.1825L5033.45,1072.1825L5033.45,636z" id="304" fill="#ffffff" stroke="#dddddd" stroke-width="10"/>
      <path d="M4032.7,636L4032.7,1072.1825L4532.85,1072.1825L4532.85,636z" id="303" fill="#ffffff" stroke="#dddddd" stroke-width="10"/>
      <path d="M3567.3,636L3567.3,1072.1825L4032.7,1072.1825L4032.7,636z" id="302" fill="#ffffff" stroke="#dddddd" stroke-width="10"/>
      <path d="M3101.85,636L3101.85,1072.1825L3567.3,1072.1825L3567.3,636z" id="301" fill="#ffffff" stroke="#dddddd" stroke-width="10"/>
      <path d="M6434.05,6616L6434.05,7052.1825L6918.25,7052.1825L6918.25,6616z" id="318" fill="#ffffff" stroke="#dddddd" stroke-width="10"/>
      <path d="M5949.8,6616L5949.8,7052.1825L6434.05,7052.1825L6434.05,6616z" id="319" fill="#ffffff" stroke="#dddddd" stroke-width="10"/>
      <path d="M5491.65,6616L5491.65,7052.1825L5949.8,7052.1825L5949.8,6616z" id="320" fill="#ffffff" stroke="#dddddd" stroke-width="10"/>
      <path d="M5033.45,6616L5033.45,7052.1825L5491.65,7052.1825L5491.65,6616z" id="321" fill="#ffffff" stroke="#dddddd" stroke-width="10"/>
      <path d="M4532.85,6616L4532.85,7052.1825L5033.45,7052.1825L5033.45,6616z" id="322" fill="#ffffff" stroke="#dddddd" stroke-width="10"/>
      <path d="M4032.7,6616L4032.7,7052.1825L4532.85,7052.1825L4532.85,6616z" id="323" fill="#ffffff" stroke="#dddddd" stroke-width="10"/>
      <path d="M3567.3,6616L3567.3,7052.1825L4032.7,7052.1825L4032.7,6616z" id="324" fill="#ffffff" stroke="#dddddd" stroke-width="10"/>
      <path d="M3101.85,6616L3101.85,7052.1825L3567.3,7052.1825L3567.3,6616z" id="325" fill="#ffffff" stroke="#dddddd" stroke-width="10"/>
    </g>
    <g id="DETAILS">
      <path d="M4015.8,4972.9000000000015L4015.8,5308.990000000002L5033.869998296737,5308.990000000002L5033.869998296737,4972.9000000000015z" id="OPPONENT" fill="#dfdfdf" stroke="#dddddd" stroke-width="10"/>
      <path d="M5033.65,4972.910000000002L5033.65,5309.000000000002L5950.099999999999,5309.000000000002L5950.099999999999,4972.910000000002z" id="HOME" fill="#dfdfdf" stroke="#dddddd" stroke-width="10"/>
      <path d="M4345.6,2415.4249999999997L4345.6,2716.2249999999995L5650.700000000001,2716.2249999999995L5650.700000000001,2415.4249999999997L4345.6,2415.4249999999997z" id="PENALTY" fill="#dfdfdf" stroke="#dddddd" stroke-width="10"/>
      <text font-family="arialebold" text-align="center" font-size="150" x="4998.150100000001" y="2617.825" width="705.6" height="173.5" fill="#727272" stroke-width="10">
        <tspan text-anchor="middle" x="4998.150100000001">PENALTY</tspan>
      </text>
      <text font-family="arialebold" text-align="center" font-size="150" id="VISITORS" x="4524.865" y="5192.950150000001" width="705.6" height="173.5" fill="#727272" stroke-width="10">
        <tspan text-anchor="middle" x="4524.865">VISITORS</tspan>
      </text>
      <text font-family="arialebold" text-align="center" font-size="150" x="5491.875099999999" y="5192.990100000001" width="455.85" height="173.5" fill="#727272" stroke-width="10">
        <tspan text-anchor="middle" x="5491.875099999999">HOME</tspan>
      </text>
    </g>
  </g>
</svg>